<svg xmlns="http://www.w3.org/2000/svg" version="1.1" xmlns:xlink="http://www.w3.org/1999/xlink" xmlns:svgjs="http://svgjs.dev/svgjs" viewBox="0 0 1920 1080" style="overflow: hidden; height: 85vh;" class="overflow-hidden rounded-md drop-shadow-lg transition duration-300"><rect width="1920" height="1080" fill="#608851"/><g clip-path="url(&quot;#SvgjsClipPath4513&quot;)"><g transform="matrix(0.3169829591895493,-1.1054509503290666,1.1054509503290666,0.3169829591895493,57.32818972430141,1427.7563334723457)"><path d="M0,-1080C0.8927587392765375,-945.4919203049685,4.812243662509671,-543.0824358216512,5.356552435659225,-272.9515218298113C5.900861208808779,-2.8206078379714654,4.845398151332469,269.6458441638827,3.265852638897325,540.7854839510393C1.6863071264621812,811.9251237381959,-3.5764118658020854,1084.0172308849678,-4.1207206389516395,1353.886316893128C-4.665029412101194,1623.755402901288,-0.6867867731586066,2025.647719482188,0,2160L 1920 2160 L 1920 -1080 Z" fill="url(&quot;#SvgjsLinearGradient4501&quot;)"/><path d="M160,-1080C160.78448704355245,-945.7460015198193,165.0154371875048,-545.1694973896788,164.70692226131467,-274.4760091189157C164.39840733512455,-3.7825208481526147,159.79404598289324,273.7775580915667,158.1489104428593,544.1609296245788C156.50377490282534,814.5443011575909,154.5275940949208,1078.51770834992,154.83610902111093,1347.824220079157C155.14462394730106,1617.1307318083939,159.1393515035185,2024.6373700131928,160,2160L 1920 2160 L 1920 -1080 Z" fill="url(&quot;#SvgjsLinearGradient4502&quot;)"/><path d="M320,-1080C320.6417470141651,-990.8133958950676,323.19510968315586,-724.1386372643373,323.85048208499074,-544.8803753704059C324.5058544868256,-365.6221134764745,324.30238420351225,-185.91700282132516,323.9322344110093,-4.450428636411732C323.56208461850633,177.01614554850167,321.98274758390085,362.8086919607357,321.6295833299729,543.9190697390748C321.27641907604493,725.0294475174138,321.81788652043844,902.9543468834539,321.8132488874415,1082.2118380336224C321.80861125444454,1261.4693291837907,321.9039656798981,1439.8326563123555,321.60175753199115,1619.4640166400852C321.29954938408423,1799.095376967815,320.2669595886652,2069.9106694400143,320,2160L 1920 2160 L 1920 -1080 Z" fill="url(&quot;#SvgjsLinearGradient4503&quot;)"/><path d="M480,-1080C480.61360693391146,-1001.9701402684633,484.29595352360667,-766.0045551106431,483.68164160346885,-611.8208416107796C483.067329683331,-457.637128110916,477.88416196815564,-307.89137761432124,476.3141284791731,-154.89771900081882C474.7440949901906,-1.904060387316406,473.3021962178964,150.8221656241113,474.26144066957363,306.14111007023496C475.2206851212509,461.4600545163586,481.3602291161327,621.9361927295317,482.06959518923657,777.015947675923C482.77896126234043,932.0957026223143,478.55664320642654,1082.8691326030169,478.51763710819665,1236.619639748583C478.47863100996676,1390.3701468941492,481.58849811789014,1545.6222638407507,481.8355585998574,1699.5189905493203C482.08261908182465,1853.4157172578898,480.30592643330954,2083.2531650915535,480,2160L 1920 2160 L 1920 -1080 Z" fill="url(&quot;#SvgjsLinearGradient4504&quot;)"/><path d="M640,-1080C640.8988696716268,-1012.4629987191412,645.9502169242883,-810.254961796312,645.3932180297608,-674.7779923148471C644.8362191352333,-539.3010228333821,637.5616449192536,-402.211025870833,636.6580066328347,-267.1381831112103C635.7543683464158,-132.06534035158762,640.1845555939944,1.2052395111525698,639.9713883112473,135.65906424288906C639.7582210285002,270.11288897462555,636.235080487591,404.9828029646758,635.3790029363518,539.5847652792086C634.5229253851126,674.1867275937414,633.5901116979958,807.8697710134135,634.8349230038123,943.2708381300856C636.0797343096287,1078.671905246758,641.7675134439968,1216.5878985738796,642.8478707712508,1351.9911679792417C643.9282280985047,1487.3944373846039,641.791712095878,1621.0223158921328,641.3170669673362,1755.6904545622592C640.8424218387945,1890.3585932323856,640.2195111612227,2092.6150757603764,640,2160L 1920 2160 L 1920 -1080 Z" fill="url(&quot;#SvgjsLinearGradient4505&quot;)"/><path d="M800,-1080C800.9139525975247,-1013.0728813881394,805.6429857135765,-812.5877336247681,805.483715585148,-678.4372883288365C805.3244454567196,-544.2868430329049,800.5994283395788,-410.7292493778194,799.0443792294288,-275.0973282244104C797.4893301192789,-139.46540707100138,796.3792499937489,-1.4113878221411085,796.1534209242479,135.35423859161745C795.927591854747,272.119865005376,796.972713589286,411.3432282771354,797.6894048124232,545.496430258141C798.4060960355604,679.6496322391466,800.7917278716085,807.013499614196,800.4535682630714,940.2734504776511C800.1154086545342,1073.5334013411061,796.287903861289,1209.3101482790087,795.6604471612002,1345.056135438871C795.0329904611114,1480.8021225987334,795.9655692560718,1618.9253960099709,796.6888280625385,1754.7493734368256C797.4120868690052,1890.5733508636804,799.4481380104231,2092.4582289061377,800,2160L 1920 2160 L 1920 -1080 Z" fill="url(&quot;#SvgjsLinearGradient4506&quot;)"/><path d="M960,-1080C959.2589364429019,-990.3743283728201,955.5331935876266,-722.7975518767792,955.5536186574114,-542.2459702369205C955.5740437271963,-361.6943885970618,959.3898460005478,-177.0508065928307,960.1225504187094,3.309489839152036C960.8552548368709,183.66978627113477,959.5140394218305,360.244926304944,959.949845166381,539.9158083549759C960.3856509109315,719.5866904050077,962.6983423134935,901.9177631541947,962.7373848860126,1081.3347821393431C962.7764274585317,1260.7518011244915,960.6403314158309,1436.6403859557568,960.1841006014955,1616.4179222658663C959.7278697871601,1796.1954585759759,960.0306834335826,2069.402987044311,960,2160L 1920 2160 L 1920 -1080 Z" fill="url(&quot;#SvgjsLinearGradient4507&quot;)"/><path d="M1120,-1080C1120.0689590675634,-1013.2021261758296,1120.5569512830793,-813.2926824148508,1120.4137544053794,-679.212757054977C1120.2705575276796,-545.1328316951033,1119.6423050611002,-411.6886172441697,1119.1408187338009,-275.5204478407574C1118.6393324065016,-139.35227843734515,1117.525966451848,0.945144182581231,1117.4048364415835,137.79625936549658C1117.283706431319,274.6473745484119,1117.771981725906,411.2160488088492,1118.4140386722133,545.5862432567346C1119.0560956185207,679.95643770462,1120.3641566658405,810.6572448295991,1121.2571781194274,944.017426052809C1122.1501995730143,1077.377607276019,1124.545182759639,1210.5593009392915,1123.772167393735,1345.7473305959943C1122.9991520278309,1480.9353602526971,1117.247780489626,1619.4368257590254,1116.6190859240035,1755.1456039930263C1115.990391358381,1890.8543822270271,1119.4365143206674,2092.524267332171,1120,2160L 1920 2160 L 1920 -1080 Z" fill="url(&quot;#SvgjsLinearGradient4508&quot;)"/><path d="M1280,-1080C1279.2663289641812,-945.0484661226218,1275.2716827137237,-540.4481146760317,1275.5979737850876,-270.2907967357307C1275.9242648564514,-0.13347879542970986,1281.7446637896594,271.13124636692106,1281.9577464281836,540.9439076418059C1282.1708290667077,810.7565689166909,1277.2027606875968,1078.7424888538794,1276.876469616233,1348.5851709135784C1276.5501785448691,1618.4278529732774,1279.4794116027056,2024.764195152263,1280,2160L 1920 2160 L 1920 -1080 Z" fill="url(&quot;#SvgjsLinearGradient4509&quot;)"/><path d="M1440,-1080C1439.7729626064547,-972.5549172164415,1438.7489253858348,-651.5315501259496,1438.6377756387283,-435.32950329864855C1438.5266258916217,-219.1274564713475,1439.8901990000586,1.0828413005659172,1439.3331015173605,217.21228096380625C1438.7760040346625,433.3417206270466,1435.3339566320406,646.155101416761,1435.29519074254,861.4471346807935C1435.2564248530393,1076.739167944826,1438.3163713041135,1292.5390029948,1439.100506180357,1508.9644805480011C1439.8846410566002,1725.3899581012022,1439.8500843633929,2051.4940800913337,1440,2160L 1920 2160 L 1920 -1080 Z" fill="url(&quot;#SvgjsLinearGradient4510&quot;)"/><path d="M1600,-1080C1600.0289355516632,-971.4857672463065,1599.7981286176628,-644.3806286612644,1600.1736133099794,-428.9146034778394C1600.549098002296,-213.4485782944144,1601.61156602214,-1.9566186801116885,1602.2529081539003,212.79615110055005C1602.8942502856605,427.54892088121176,1605.3534548788184,643.5420299674854,1604.021666100541,859.602015206131C1602.6898773222638,1075.6620004447766,1594.9324531676596,1292.4230650667791,1594.262175484236,1509.156062532424C1593.5918978008124,1725.8890599980687,1599.0436959140393,2051.5260104220706,1600,2160L 1920 2160 L 1920 -1080 Z" fill="url(&quot;#SvgjsLinearGradient4511&quot;)"/><path d="M1760,-1080C1760.1875713758934,-990.5006456040181,1760.967362888032,-722.2468106420738,1761.1254282553607,-543.0038736241086C1761.2834936226893,-363.76093660614333,1760.6045726007683,-184.63558082290137,1760.948392203972,-4.542377892208847C1761.2922118071756,175.55082503848365,1762.730383349322,355.81882587171515,1763.188345874583,537.5553439600465C1763.6463083998442,719.2918620483778,1765.0220767664812,905.6739799678899,1763.6961673555386,1085.8767306377788C1762.370257944596,1266.0794813076677,1755.8489173015175,1439.7513030856762,1755.2328894089278,1618.7718479793798C1754.616861516338,1797.7923928730834,1759.2054815681547,2069.795307996563,1760,2160L 1920 2160 L 1920 -1080 Z" fill="url(&quot;#SvgjsLinearGradient4512&quot;)"/></g></g><defs><linearGradient x1="0.1" y1="0" x2="0" y2="1" id="SvgjsLinearGradient4501"><stop stop-color="#608851" offset="0"/><stop stop-color="#698851" offset="0"/></linearGradient><linearGradient x1="0.1" y1="0" x2="0" y2="1" id="SvgjsLinearGradient4502"><stop stop-color="#6a965a" offset="0"/><stop stop-color="#74965a" offset="0.08333333333333333"/></linearGradient><linearGradient x1="0.1" y1="0" x2="0" y2="1" id="SvgjsLinearGradient4503"><stop stop-color="#75a364" offset="0"/><stop stop-color="#7fa364" offset="0.16666666666666666"/></linearGradient><linearGradient x1="0.1" y1="0" x2="0" y2="1" id="SvgjsLinearGradient4504"><stop stop-color="#82ab72" offset="0"/><stop stop-color="#8bab72" offset="0.25"/></linearGradient><linearGradient x1="0.1" y1="0" x2="0" y2="1" id="SvgjsLinearGradient4505"><stop stop-color="#8fb481" offset="0"/><stop stop-color="#97b481" offset="0.3333333333333333"/></linearGradient><linearGradient x1="0.1" y1="0" x2="0" y2="1" id="SvgjsLinearGradient4506"><stop stop-color="#9bbc8f" offset="0"/><stop stop-color="#a2bc8f" offset="0.4166666666666667"/></linearGradient><linearGradient x1="0.1" y1="0" x2="0" y2="1" id="SvgjsLinearGradient4507"><stop stop-color="#a8c59d" offset="0"/><stop stop-color="#afc59d" offset="0.5"/></linearGradient><linearGradient x1="0.1" y1="0" x2="0" y2="1" id="SvgjsLinearGradient4508"><stop stop-color="#b5cdac" offset="0"/><stop stop-color="#bacdac" offset="0.5833333333333334"/></linearGradient><linearGradient x1="0.1" y1="0" x2="0" y2="1" id="SvgjsLinearGradient4509"><stop stop-color="#c2d6ba" offset="0"/><stop stop-color="#c7d6ba" offset="0.6666666666666666"/></linearGradient><linearGradient x1="0.1" y1="0" x2="0" y2="1" id="SvgjsLinearGradient4510"><stop stop-color="#cedec8" offset="0"/><stop stop-color="#d2dec8" offset="0.75"/></linearGradient><linearGradient x1="0.1" y1="0" x2="0" y2="1" id="SvgjsLinearGradient4511"><stop stop-color="#dbe7d7" offset="0"/><stop stop-color="#dee7d7" offset="0.8333333333333334"/></linearGradient><linearGradient x1="0.1" y1="0" x2="0" y2="1" id="SvgjsLinearGradient4512"><stop stop-color="#e8f0e5" offset="0"/><stop stop-color="#eaf0e5" offset="0.9166666666666666"/></linearGradient><clipPath id="SvgjsClipPath4513"><rect width="1920" height="1080"/></clipPath></defs></svg>